<?xml version="1.0" standalone="no"?>
<!DOCTYPE svg PUBLIC "-//W3C//DTD SVG 20010904//EN"
 "http://www.w3.org/TR/2001/REC-SVG-20010904/DTD/svg10.dtd">
<svg version="1.0" xmlns="http://www.w3.org/2000/svg"
 width="512.000000pt" height="512.000000pt" viewBox="0 0 512.000000 512.000000"
 preserveAspectRatio="xMidYMid meet">

<g transform="translate(0.000000,512.000000) scale(0.100000,-0.100000)"
fill="#000000" stroke="none">
<path d="M2146 5030 c-63 -16 -153 -70 -197 -117 -22 -24 -55 -74 -72 -111
-30 -63 -32 -73 -31 -177 1 -132 18 -205 79 -330 68 -140 183 -260 314 -329
77 -40 297 -126 323 -126 37 0 302 112 366 154 223 148 344 369 346 631 1 104
-1 114 -31 177 -44 93 -100 151 -191 196 -72 35 -81 37 -171 37 -87 0 -102 -3
-163 -32 -37 -17 -87 -50 -112 -73 l-46 -43 -46 43 c-70 64 -158 101 -252 106
-42 2 -94 -1 -116 -6z"/>
<path d="M1635 3990 c-145 -27 -271 -94 -381 -204 -90 -91 -143 -176 -182
-294 -21 -65 -25 -102 -30 -240 -5 -189 6 -281 49 -393 35 -90 106 -195 178
-262 l51 -48 -20 -21 c-18 -20 -20 -36 -20 -169 l0 -147 -346 -153 c-214 -95
-351 -162 -359 -174 -11 -17 -259 -1785 -251 -1792 14 -14 278 -18 1218 -15
l1098 2 2 415 3 415 118 -188 117 -188 0 -227 0 -227 80 0 80 0 2 188 3 189
80 -18 c44 -10 256 -59 471 -109 215 -49 401 -90 413 -90 12 0 33 11 46 25
l25 24 0 -104 0 -105 80 0 80 0 0 94 0 94 44 6 c136 21 226 170 184 307 -23
78 -134 169 -205 169 -23 0 -23 1 -23 145 l0 145 -80 0 -80 0 0 -79 0 -78
-373 75 c-365 72 -374 75 -384 101 -6 14 -27 61 -47 104 -20 43 -33 76 -29 74
5 -2 81 -47 170 -100 88 -54 171 -97 184 -97 31 0 455 255 470 282 6 11 9 36
6 54 -3 19 -4 34 -2 34 3 0 75 16 161 35 l157 35 25 -22 c39 -36 101 -137 118
-192 10 -33 31 -255 59 -620 24 -312 45 -569 47 -570 6 -5 146 9 152 15 3 2
-15 264 -39 582 -37 478 -48 587 -66 639 -21 65 -82 182 -99 193 -6 4 3 19 20
35 56 52 53 58 -195 380 -124 160 -225 296 -225 300 0 4 16 33 35 65 75 125
99 252 93 484 -5 141 -9 177 -30 243 -39 118 -92 203 -182 294 -90 90 -175
143 -294 182 -67 22 -94 26 -212 26 -118 0 -145 -4 -212 -26 -119 -39 -204
-92 -294 -182 -90 -90 -142 -175 -182 -294 -24 -72 -26 -89 -27 -282 0 -167 3
-217 18 -270 22 -82 56 -154 102 -225 l37 -54 -97 -118 c-53 -65 -100 -119
-104 -121 -4 -1 -135 57 -291 129 -157 72 -291 133 -297 136 -10 4 -13 44 -13
152 0 133 -2 149 -20 169 l-20 21 51 48 c72 67 143 172 178 262 43 112 54 204
49 393 -5 138 -9 175 -30 240 -39 118 -92 203 -182 294 -138 137 -286 202
-476 209 -58 2 -127 0 -155 -5z m445 -1670 l0 -80 -320 0 -320 0 0 80 0 80
320 0 320 0 0 -80z m2064 -313 c147 -192 266 -350 264 -352 -2 -2 -86 -23
-187 -46 -117 -26 -186 -38 -190 -31 -3 6 -50 177 -105 381 -96 361 -98 372
-81 391 10 11 22 17 25 13 4 -5 127 -165 274 -356z m-856 3 c-45 -168 -82
-307 -84 -308 -2 -3 -252 87 -262 94 -2 1 92 120 209 263 117 143 214 259 215
258 2 -1 -34 -140 -78 -307z m-863 -66 l300 -137 -3 -37 c-6 -56 10 -75 85
-105 l68 -27 170 -370 c154 -338 172 -372 200 -383 16 -7 185 -43 375 -80 190
-37 349 -71 353 -75 7 -6 -16 -167 -39 -281 l-5 -25 -457 105 -458 106 -189
305 c-105 167 -198 312 -207 322 -25 25 -92 24 -118 -2 -19 -19 -20 -33 -20
-290 0 -148 -2 -270 -5 -270 -3 0 -52 28 -108 62 -483 290 -860 646 -1169
1102 l-68 99 128 58 127 57 370 1 370 1 300 -136z m729 -404 c9 -9 -2 -70 -13
-70 -8 0 -41 65 -41 81 0 11 38 3 54 -11z m1056 -944 c77 -19 86 -24 99 -52
17 -38 13 -63 -14 -89 -27 -28 -42 -30 -130 -14 l-62 11 8 46 c5 26 11 62 14
80 7 36 9 37 85 18z"/>
</g>
</svg>
